<?xml version="1.0" encoding="utf-8"?>
<!-- Generator: Adobe Illustrator 22.1.0, SVG Export Plug-In . SVG Version: 6.00 Build 0)  -->
<svg version="1.1" id="Layer_1" xmlns="http://www.w3.org/2000/svg" xmlns:xlink="http://www.w3.org/1999/xlink" x="0px" y="0px"
	 viewBox="0 0 636.7 268.7" style="enable-background:new 0 0 636.7 268.7;" xml:space="preserve">
<style type="text/css">
	.st0{fill:url(#SVGID_1_);}
	.st1{fill:url(#SVGID_2_);}
	.st2{fill:url(#SVGID_3_);}
	.st3{fill:url(#SVGID_4_);}
	.st4{fill:#0F2F14;}
	.st5{fill:none;}
	.st6{fill:#FFFFFF;}
	.st7{fill:#0B7D29;}
	.st8{fill:#00771E;}
	.st9{fill:#041B09;}
	.st10{fill:#B0E346;}
</style>
<g>
	<g>
		<linearGradient id="SVGID_1_" gradientUnits="userSpaceOnUse" x1="72.1882" y1="225.9589" x2="194.5215" y2="47.2922">
			<stop  offset="0.1156" style="stop-color:#041B09"/>
			<stop  offset="0.3653" style="stop-color:#074015"/>
			<stop  offset="0.6304" style="stop-color:#096120"/>
			<stop  offset="0.8515" style="stop-color:#0A7627"/>
			<stop  offset="1" style="stop-color:#0B7D29"/>
		</linearGradient>
		<path class="st0" d="M212.7,106.5c-16.5,2.3-26.5,4.3-26.5,4.3s0,0,0,0c-7.7,3.9-14.6,4.9-37.8,13c-33.3,13.4-38.9,36.9-42.1,53
			c-1,5-2.3,15.4-8.8,16.3c-4.4,0.6-7.9-4.9-7-8.9c0.6-2.6,2.7-4.9,5.5-4.5c2,0.3,3.6,1.6,4.9,3.1c0.4-0.9,0.3-1.9-0.2-2.8
			c-0.5-0.8-1.2-1.5-2-2c-2.8-1.7-6.5-1.8-9.3,0c-5.4,3.5-3.7,10.3-0.5,14.6c2.1,2.9,0.4,7.5-3.4,11.4s-20.1,16.4-20.1,16.4
			s8.5-18.6,9.8-27.8c0-11.4,2.3-13,5.5-16.4S95,165,101.5,159.5s8.1-12.8,8.5-20.5c0.5-7.8,3.5-11.9,12.6-16.9s13.6-6.8,23.3-14.5
			c8.5-7.3,17.5-14.6,28.8-44.5c-13.8,31.4-45.1,48.4-51.1,51.6c-5.9-3.4-4.4-10.1,0.9-11.4s7,4.5,7,4.5s0,0,2.3-2.3
			c-2-4.1-7.5-7.6-14.1-4.1c-6.6,4.1-3.6,11.8-1.4,15.6c-10.6,5.1-14.5,12.2-12.9,22.9c1.8,13.3-19.4,26.3-19.4,26.3s0,0-0.1-24
			c4.1-2.2,7.8-5.2,6.7-10.4c-0.9-4.4-4.7-8.1-9.2-8.5c-3.9-0.3-7.8,1.8-9.5,5.4c-4.6,9.9,6.8,14.6,6.8,14.6s0.3,9.3,0.3,26.9
			c-13.9,10.9-26.8,29-26.8,29s1.6-4.1,5.4-11.3c4-6.1-3.8-15.8-4.5-35.1c-0.8-20.3,9-38.1,20-51.6c-20.9,18.3-34.5,43.1-29.8,75.2
			c1.8,17,13,34,20.8,46.8c12.8-5,18-9,54.8-11.5S217.5,183.2,212.7,106.5z M78.2,133c0-2.7,2.4-4.8,5.3-4.8s6.8,2.2,6.8,4.8
			c0,2.7-3.9,4.8-6.8,4.8S78.2,135.6,78.2,133z M196.1,154c-15.5,21-32,39.5-77.1,45c15.6-15.1,29.9-29.1,40.6-32.8
			c-4.9-0.1-4.9-0.1-4.9-0.1l-6.3,3.3c0,0,41.8-32.8,45-38.6c-22.4,16.3-52,31.6-68.5,48.4c-12,11.6-14.1,14-14.1,14
			c0.3-0.3,0.2-1.7,0.2-2c0.2-1.9,0.5-3.8,0.8-5.6c1.1-6.1,2.6-12.1,4.7-17.9c2.9-8,6.8-16.8,13.2-22.6c6.7-6,14.6-10.4,22.7-14.4
			c8.8-4.4,17.9-8.1,27.1-11.5c26.1-9.8,31.3-11.3,31.3-11.3S211.6,133,196.1,154z"/>
		<linearGradient id="SVGID_2_" gradientUnits="userSpaceOnUse" x1="52.2166" y1="208.0404" x2="161.8833" y2="65.0404">
			<stop  offset="0" style="stop-color:#00771E"/>
			<stop  offset="1" style="stop-color:#B0E346"/>
		</linearGradient>
		<path class="st1" d="M54.9,152.8c0.8,19.4,8.5,29,4.5,35.1c-3.8,7.1-5.4,11.3-5.4,11.3s12.9-18.1,26.8-29
			c0-17.6-0.3-26.9-0.3-26.9s-11.4-4.7-6.8-14.6c1.7-3.6,5.5-5.7,9.5-5.4c4.5,0.4,8.3,4.1,9.2,8.5c1.1,5.2-2.5,8.2-6.7,10.4
			c0.1,24,0.1,24,0.1,24s21.1-13,19.4-26.3c-1.6-10.6,2.3-17.7,12.9-22.9c-2.3-3.9-5.3-11.5,1.4-15.6c6.6-3.5,12.1,0,14.1,4.1
			c-2.3,2.3-2.3,2.3-2.3,2.3s-1.8-5.8-7-4.5s-6.8,8-0.9,11.4c6-3.3,37.4-20.3,51.1-51.6c-11.3,29.9-20.3,37.3-28.8,44.5
			c-9.6,7.8-14.1,9.5-23.3,14.5s-12.1,9.1-12.6,16.9c-0.4,7.8-2,15-8.5,20.5S84,172.8,80.7,176.2s-5.5,5-5.5,16.4
			c-1.3,9.1-9.8,27.8-9.8,27.8s16.4-12.5,20.1-16.4s5.5-8.5,3.4-11.4c-3.2-4.3-4.9-11.1,0.5-14.6c2.7-1.8,6.5-1.7,9.3,0
			c0.8,0.5,1.6,1.2,2,2c0.5,0.8,0.6,1.9,0.2,2.8c-1.3-1.5-2.9-2.8-4.9-3.1c-2.9-0.4-4.9,1.9-5.5,4.5c-0.9,4,2.6,9.5,7,8.9
			c6.6-0.9,7.8-11.3,8.8-16.3c3.3-16.1,8.9-39.6,42.1-53c23.1-8.2,30.1-9.2,37.8-13c0.3-1,8.3-34-4.3-65.2c0,0-9.5,9.3-62.5,29.3
			c-16,6.5-31.7,15.3-44.7,26.5C63.9,114.7,54.1,132.6,54.9,152.8z"/>
		<linearGradient id="SVGID_3_" gradientUnits="userSpaceOnUse" x1="93.4998" y1="239.7005" x2="203.1665" y2="96.7005">
			<stop  offset="0" style="stop-color:#00771E"/>
			<stop  offset="1" style="stop-color:#B0E346"/>
		</linearGradient>
		<path class="st2" d="M179.6,119.1c-9.2,3.4-18.3,7.2-27.1,11.5c-8,4-16,8.4-22.7,14.4c-6.5,5.8-10.3,14.6-13.2,22.6
			c-2.1,5.8-3.7,11.8-4.7,17.9c-0.3,1.9-0.6,3.7-0.8,5.6c0,0.4,0.1,1.8-0.2,2c0,0,2.1-2.4,14.1-14c16.5-16.8,46.1-32.1,68.5-48.4
			c-3.3,5.9-45,38.6-45,38.6l6.3-3.3c0,0,0,0,4.9,0.1c-10.8,3.6-25,17.6-40.6,32.8c45.1-5.5,61.6-24,77.1-45s14.8-46.1,14.8-46.1
			S205.7,109.3,179.6,119.1z"/>
		<linearGradient id="SVGID_4_" gradientUnits="userSpaceOnUse" x1="36.0285" y1="195.6257" x2="145.6951" y2="52.6257">
			<stop  offset="0" style="stop-color:#00771E"/>
			<stop  offset="1" style="stop-color:#B0E346"/>
		</linearGradient>
		<path class="st3" d="M90.3,133c0-2.7-3.9-4.8-6.8-4.8s-5.3,2.2-5.3,4.8c0,2.7,2.4,4.8,5.3,4.8S90.3,135.6,90.3,133z"/>
	</g>
	<g>
		<path class="st4" d="M241.9,175.7v-61h47.3V125h-34.4v13.5h32v10.3h-32v16.6h35.6v10.3H241.9z"/>
		<path class="st4" d="M341.1,175.7h-12.2v-22.6c0-4.8-0.3-7.9-0.8-9.3c-0.5-1.4-1.4-2.5-2.5-3.3c-1.2-0.8-2.6-1.2-4.2-1.2
			c-2.1,0-4,0.6-5.7,1.7c-1.7,1.1-2.8,2.6-3.5,4.4c-0.6,1.8-0.9,5.2-0.9,10.2v20h-12.2v-44.2h11.4v6.5c4-5,9.1-7.5,15.2-7.5
			c2.7,0,5.2,0.5,7.4,1.4c2.2,0.9,3.9,2.1,5.1,3.6c1.1,1.4,1.9,3.1,2.4,4.9s0.7,4.5,0.7,7.9V175.7z"/>
		<path class="st4" d="M363.9,175.7l-18.6-44.2h12.8l8.7,22.6l2.5,7.5c0.7-1.9,1.1-3.2,1.3-3.8c0.4-1.2,0.8-2.5,1.3-3.7l8.8-22.6
			h12.6l-18.4,44.2H363.9z"/>
		<path class="st4" d="M398.6,175.7v-61h12.2v61H398.6z"/>
		<path class="st4" d="M418.3,153c0-3.9,1-7.6,3-11.3c2-3.6,4.8-6.4,8.5-8.3c3.7-1.9,7.8-2.9,12.3-2.9c7,0,12.7,2.2,17.2,6.5
			c4.5,4.3,6.7,9.8,6.7,16.5c0,6.7-2.3,12.2-6.8,16.6c-4.5,4.4-10.2,6.6-17,6.6c-4.2,0-8.3-0.9-12.1-2.7c-3.8-1.8-6.8-4.5-8.8-8.1
			C419.3,162.4,418.3,158.1,418.3,153z M430.8,153.6c0,4.4,1.1,7.7,3.3,10.1c2.2,2.3,4.9,3.5,8.1,3.5c3.2,0,5.9-1.2,8-3.5
			c2.2-2.3,3.2-5.7,3.2-10.2c0-4.3-1.1-7.7-3.2-10c-2.2-2.3-4.8-3.5-8-3.5c-3.2,0-5.9,1.2-8.1,3.5
			C431.9,145.9,430.8,149.2,430.8,153.6z"/>
		<path class="st4" d="M470.5,153c0-3.9,1-7.6,3-11.3c2-3.6,4.8-6.4,8.5-8.3c3.7-1.9,7.8-2.9,12.3-2.9c7,0,12.7,2.2,17.2,6.5
			c4.5,4.3,6.7,9.8,6.7,16.5c0,6.7-2.3,12.2-6.8,16.6c-4.5,4.4-10.2,6.6-17,6.6c-4.2,0-8.3-0.9-12.1-2.7c-3.8-1.8-6.8-4.5-8.8-8.1
			C471.5,162.4,470.5,158.1,470.5,153z M483,153.6c0,4.4,1.1,7.7,3.3,10.1c2.2,2.3,4.9,3.5,8.1,3.5c3.2,0,5.9-1.2,8-3.5
			c2.2-2.3,3.2-5.7,3.2-10.2c0-4.3-1.1-7.7-3.2-10c-2.2-2.3-4.8-3.5-8-3.5c-3.2,0-5.9,1.2-8.1,3.5C484.1,145.9,483,149.2,483,153.6z
			"/>
		<path class="st4" d="M524.6,131.5h11.3v6c4-4.7,8.8-7,14.4-7c3,0,5.5,0.6,7.7,1.7c2.2,1.2,4,2.9,5.4,5.3c2-2.4,4.2-4.1,6.6-5.3
			c2.4-1.2,4.9-1.7,7.5-1.7c3.4,0,6.3,0.7,8.6,2c2.3,1.3,4.1,3.3,5.3,5.8c0.8,1.9,1.3,4.9,1.3,9.2v28.3h-12.2v-25.3
			c0-4.4-0.4-7.2-1.3-8.5c-1.1-1.7-2.9-2.5-5.2-2.5c-1.7,0-3.3,0.5-4.8,1.5c-1.5,1-2.6,2.5-3.3,4.4c-0.7,1.9-1,5-1,9.1v21.2h-12.2
			v-24.2c0-4.3-0.2-7.1-0.7-8.3c-0.4-1.2-1.1-2.2-2-2.8c-0.9-0.6-2.2-0.9-3.7-0.9c-1.9,0-3.6,0.5-5.1,1.5c-1.5,1-2.6,2.4-3.2,4.2
			c-0.7,1.8-1,4.9-1,9.1v21.5h-12.2V131.5z"/>
	</g>
</g>
</svg>
